<?xml version="1.0" encoding="UTF-8"?>
<svg version="1.1" xmlns="http://www.w3.org/2000/svg" width="639" height="639">
<path d="M0 0 C210.87 0 421.74 0 639 0 C639 210.87 639 421.74 639 639 C428.13 639 217.26 639 0 639 C0 428.13 0 217.26 0 0 Z " fill="#FAF7F3" transform="translate(0,0)"/>
<path d="M0 0 C6.36796617 -0.05104188 12.73587884 -0.08587607 19.10400391 -0.10986328 C21.26678438 -0.11987167 23.42955149 -0.13348251 25.59228516 -0.15087891 C28.71520298 -0.17535544 31.83794067 -0.18653504 34.9609375 -0.1953125 C35.91551849 -0.20563507 36.87009949 -0.21595764 37.85360718 -0.22659302 C44.14643572 -0.22762606 49.87988396 0.57754416 56 2 C57.38758242 2.2927405 58.77574255 2.58276018 60.16455078 2.86962891 C61.50826453 3.15467774 62.85185006 3.44033158 64.1953125 3.7265625 C64.91363251 3.87910492 65.63195251 4.03164734 66.37203979 4.18881226 C68.62314471 4.66698743 70.87407538 5.14597692 73.125 5.625 C74.66925927 5.95317942 76.21353002 6.28130483 77.7578125 6.609375 C81.50534086 7.40562786 85.25271343 8.20261005 89 9 C89 9.66 89 10.32 89 11 C89.78503906 11.08121094 90.57007813 11.16242187 91.37890625 11.24609375 C96.19346266 12.24847712 100.44255438 14.09895265 104.9375 16.0625 C106.33476318 16.66976929 106.33476318 16.66976929 107.76025391 17.28930664 C130.57871643 27.33987536 149.90590015 40.83701393 168 58 C168.8360376 58.78503906 168.8360376 58.78503906 169.68896484 59.5859375 C178.68405568 68.08059544 186.38403154 77.15480255 193.65771484 87.15820312 C194.7712273 88.6860929 195.90808232 90.19693898 197.05078125 91.703125 C220.03866895 122.77640768 230.21803637 164.61502909 230.25 202.6875 C230.25067474 203.41376587 230.25134949 204.14003174 230.25204468 204.88830566 C230.18845376 248.23710394 217.19366689 295.14449017 189 329 C188.40960938 329.76699219 187.81921875 330.53398437 187.2109375 331.32421875 C182.9352214 336.82806607 178.35753009 341.76749349 173.3671875 346.62890625 C171.30062258 348.69888134 169.4255027 350.81174315 167.5625 353.0625 C163.36389731 357.9608698 157.2356023 365.03293328 150.79296875 366.50390625 C150.20128906 366.66761719 149.60960937 366.83132813 149 367 C148.70996094 367.59296875 148.41992188 368.1859375 148.12109375 368.796875 C146.48230336 372.01735506 144.05827787 373.28912721 141.0625 375.25 C139.47115234 376.30960937 139.47115234 376.30960937 137.84765625 377.390625 C135 379 135 379 132 379 C131.67 379.99 131.34 380.98 131 382 C129.00390625 383.16796875 129.00390625 383.16796875 126.5625 384.1875 C125.75941406 384.53167969 124.95632813 384.87585938 124.12890625 385.23046875 C122 386 122 386 120 386 C120 386.66 120 387.32 120 388 C77.4 409 77.4 409 58 409 C58.15831299 409.53665283 58.31662598 410.07330566 58.47973633 410.6262207 C59.09587289 413.43743413 59.21395317 416.10409986 59.32421875 418.98046875 C59.38416016 420.14513672 59.44410156 421.30980469 59.50585938 422.50976562 C59.6259468 424.94121308 59.72782732 427.37363525 59.81054688 429.80664062 C59.87693359 430.97775391 59.94332031 432.14886719 60.01171875 433.35546875 C60.05772217 434.41403076 60.10372559 435.47259277 60.15112305 436.56323242 C61.00085487 440.00346103 61.92756047 441.46712798 63.98168945 444.26025391 C67.50665808 449.26764324 68.02547705 453.46327898 68.28125 459.48046875 C68.34534058 460.47427048 68.40943115 461.4680722 68.47546387 462.49198914 C68.6744978 465.66040465 68.83714215 468.82954307 69 472 C69.12724173 474.06349887 69.25743339 476.12681803 69.390625 478.18994141 C69.79508051 484.56231403 70.15019346 490.93692887 70.5 497.3125 C70.69183515 500.75529044 70.8845548 504.19803048 71.07743835 507.64076233 C71.20473549 509.91347471 71.33162243 512.1862101 71.45808411 514.45896912 C71.82349492 520.99280864 72.21318596 527.52436693 72.63671875 534.0546875 C76.33423062 591.27801181 76.33423062 591.27801181 61.3203125 608.98046875 C58.96837012 611.44357259 57.26185361 612.91271546 54 614 C53.195625 614.804375 52.39125 615.60875 51.5625 616.4375 C48.4336294 619.5663706 46.677284 620.92375982 42.25 621.125 C41.5075 621.08375 40.765 621.0425 40 621 C40 621.66 40 622.32 40 623 C26.43232874 626.94695891 11.7339651 626.36698255 -1 620 C-1 619.34 -1 618.68 -1 618 C-1.71414063 617.92523437 -2.42828125 617.85046875 -3.1640625 617.7734375 C-11.45028101 615.51355972 -18.45786472 605.97917645 -22.5625 598.875 C-26.82498138 590.35003724 -28.27892836 582.95506796 -28.2109375 573.53125 C-28.20697464 572.58714767 -28.20301178 571.64304535 -28.19892883 570.67033386 C-28.06101097 557.58016917 -27.16673334 544.51814268 -26.32526779 531.4583168 C-26.13881788 528.55424645 -25.95636027 525.64992995 -25.77375126 522.74561596 C-25.36244284 516.20631227 -24.94442778 509.66746695 -24.52148438 503.12890625 C-24.12111904 496.93627466 -23.73799469 490.74273524 -23.3646698 484.54841614 C-23.12154583 480.54657827 -22.86785321 476.54547112 -22.61050415 472.54452515 C-22.49633349 470.74157927 -22.38620146 468.93837252 -22.28036499 467.13491821 C-22.13507369 464.67884756 -21.97398264 462.22431858 -21.80859375 459.76953125 C-21.77115051 459.07468628 -21.73370728 458.37984131 -21.69512939 457.66394043 C-21.28823931 452.04617602 -19.82344838 447.38450942 -16.375 442.875 C-13.60336748 439.0955011 -13.78797521 434.15085135 -13.46484375 429.60546875 C-13.33432617 427.80239258 -13.33432617 427.80239258 -13.20117188 425.96289062 C-13.0706543 424.09407227 -13.0706543 424.09407227 -12.9375 422.1875 C-12.84662109 420.92228516 -12.75574219 419.65707031 -12.66210938 418.35351562 C-12.43857988 415.23586743 -12.21798043 412.11804027 -12 409 C-12.82242188 408.88825439 -13.64484375 408.77650879 -14.4921875 408.66137695 C-21.53032784 407.65106654 -28.21953851 406.31612029 -35 404.1875 C-35.78632813 403.95224609 -36.57265625 403.71699219 -37.3828125 403.47460938 C-48.8442794 399.9643048 -59.70155119 395.4402181 -70.3125 389.875 C-71.93381836 389.02784424 -71.93381836 389.02784424 -73.58789062 388.16357422 C-82.5492491 383.3983438 -90.88206456 378.07601602 -99 372 C-99.9796875 371.28457031 -100.959375 370.56914062 -101.96875 369.83203125 C-106.44410876 366.4824186 -106.44410876 366.4824186 -108 365 C-108 364.34 -108 363.68 -108 363 C-108.59079346 362.89292725 -109.18158691 362.78585449 -109.7902832 362.67553711 C-112.29681716 361.90925941 -113.45698897 360.97757298 -115.35546875 359.19140625 C-116.2827478 358.32539795 -116.2827478 358.32539795 -117.22875977 357.44189453 C-117.87514404 356.82169434 -118.52152832 356.20149414 -119.1875 355.5625 C-119.85515381 354.92940918 -120.52280762 354.29631836 -121.21069336 353.64404297 C-157.43757364 318.97469478 -182.42299353 266.70013366 -184.1262207 216.26220703 C-185.14939858 168.74665116 -174.66584698 124.24823545 -145.34521484 85.78222656 C-143.89550708 83.8615611 -142.48856643 81.9134092 -141.08203125 79.9609375 C-133.52021484 69.60723079 -125.03264286 60.58748248 -115.7824707 51.72412109 C-114.23608457 50.22835628 -112.72939435 48.69176005 -111.23046875 47.1484375 C-109.28180378 45.27143972 -107.70691788 44.06951858 -105.3125 42.875 C-101.82893766 41.23183074 -101.82893766 41.23183074 -100 38 C-99.01 38 -98.02 38 -97 38 C-96.67 37.01 -96.34 36.02 -96 35 C-94.67696283 34.6278958 -93.34262065 34.29369827 -92 34 C-91.505 33.01 -91.505 33.01 -91 32 C-90.01 32 -89.02 32 -88 32 C-88 31.34 -88 30.68 -88 30 C-82.75676389 26.09546247 -76.88485831 23.36379422 -70.79296875 21.078125 C-66.12681801 19.27692555 -61.57543021 17.19920286 -57.00390625 15.171875 C-54 14 -54 14 -51 14 C-51 13.34 -51 12.68 -51 12 C-43.54972324 9.33291271 -36.0412073 7.54766205 -28.3125 5.875 C-27.11560547 5.61074219 -25.91871094 5.34648437 -24.68554688 5.07421875 C-9.97498179 1.84886391 -9.97498179 1.84886391 -4.125 1.9375 C-2.95324219 1.95103516 -2.95324219 1.95103516 -1.7578125 1.96484375 C-1.17773438 1.97644531 -0.59765625 1.98804688 0 2 C0 1.34 0 0.68 0 0 Z " fill="#E97918" transform="translate(291,12)"/>
<path d="M0 0 C6.36796617 -0.05104188 12.73587884 -0.08587607 19.10400391 -0.10986328 C21.26678438 -0.11987167 23.42955149 -0.13348251 25.59228516 -0.15087891 C28.71520298 -0.17535544 31.83794067 -0.18653504 34.9609375 -0.1953125 C35.91551849 -0.20563507 36.87009949 -0.21595764 37.85360718 -0.22659302 C44.14643572 -0.22762606 49.87988396 0.57754416 56 2 C57.38758242 2.2927405 58.77574255 2.58276018 60.16455078 2.86962891 C61.50826453 3.15467774 62.85185006 3.44033158 64.1953125 3.7265625 C64.91363251 3.87910492 65.63195251 4.03164734 66.37203979 4.18881226 C68.62314471 4.66698743 70.87407538 5.14597692 73.125 5.625 C74.66925927 5.95317942 76.21353002 6.28130483 77.7578125 6.609375 C81.50534086 7.40562786 85.25271343 8.20261005 89 9 C89 9.66 89 10.32 89 11 C89.78503906 11.08121094 90.57007813 11.16242187 91.37890625 11.24609375 C96.19346266 12.24847712 100.44255438 14.09895265 104.9375 16.0625 C106.33476318 16.66976929 106.33476318 16.66976929 107.76025391 17.28930664 C130.57871643 27.33987536 149.90590015 40.83701393 168 58 C168.8360376 58.78503906 168.8360376 58.78503906 169.68896484 59.5859375 C178.68405568 68.08059544 186.38403154 77.15480255 193.65771484 87.15820312 C194.7712273 88.6860929 195.90808232 90.19693898 197.05078125 91.703125 C220.03866895 122.77640768 230.21803637 164.61502909 230.25 202.6875 C230.25067474 203.41376587 230.25134949 204.14003174 230.25204468 204.88830566 C230.18845376 248.23710394 217.19366689 295.14449017 189 329 C188.40960938 329.76699219 187.81921875 330.53398437 187.2109375 331.32421875 C182.9352214 336.82806607 178.35753009 341.76749349 173.3671875 346.62890625 C171.30062258 348.69888134 169.4255027 350.81174315 167.5625 353.0625 C163.36389731 357.9608698 157.2356023 365.03293328 150.79296875 366.50390625 C150.20128906 366.66761719 149.60960937 366.83132813 149 367 C148.70996094 367.59296875 148.41992188 368.1859375 148.12109375 368.796875 C146.48230336 372.01735506 144.05827787 373.28912721 141.0625 375.25 C139.47115234 376.30960937 139.47115234 376.30960937 137.84765625 377.390625 C135 379 135 379 132 379 C131.67 379.99 131.34 380.98 131 382 C129.00390625 383.16796875 129.00390625 383.16796875 126.5625 384.1875 C125.75941406 384.53167969 124.95632813 384.87585938 124.12890625 385.23046875 C122 386 122 386 120 386 C120 386.66 120 387.32 120 388 C77.4 409 77.4 409 58 409 C58.15831299 409.53665283 58.31662598 410.07330566 58.47973633 410.6262207 C59.09587289 413.43743413 59.21395317 416.10409986 59.32421875 418.98046875 C59.38416016 420.14513672 59.44410156 421.30980469 59.50585938 422.50976562 C59.6259468 424.94121308 59.72782732 427.37363525 59.81054688 429.80664062 C59.87693359 430.97775391 59.94332031 432.14886719 60.01171875 433.35546875 C60.05772217 434.41403076 60.10372559 435.47259277 60.15112305 436.56323242 C61.00085487 440.00346103 61.92756047 441.46712798 63.98168945 444.26025391 C67.50665808 449.26764324 68.02547705 453.46327898 68.28125 459.48046875 C68.34534058 460.47427048 68.40943115 461.4680722 68.47546387 462.49198914 C68.6744978 465.66040465 68.83714215 468.82954307 69 472 C69.12724173 474.06349887 69.25743339 476.12681803 69.390625 478.18994141 C69.79508051 484.56231403 70.15019346 490.93692887 70.5 497.3125 C70.69183515 500.75529044 70.8845548 504.19803048 71.07743835 507.64076233 C71.20473549 509.91347471 71.33162243 512.1862101 71.45808411 514.45896912 C71.82349492 520.99280864 72.21318596 527.52436693 72.63671875 534.0546875 C76.33423062 591.27801181 76.33423062 591.27801181 61.3203125 608.98046875 C58.96837012 611.44357259 57.26185361 612.91271546 54 614 C53.195625 614.804375 52.39125 615.60875 51.5625 616.4375 C48.4336294 619.5663706 46.677284 620.92375982 42.25 621.125 C41.5075 621.08375 40.765 621.0425 40 621 C40 621.66 40 622.32 40 623 C26.43232874 626.94695891 11.7339651 626.36698255 -1 620 C-1 619.34 -1 618.68 -1 618 C-1.71414063 617.92523437 -2.42828125 617.85046875 -3.1640625 617.7734375 C-11.45028101 615.51355972 -18.45786472 605.97917645 -22.5625 598.875 C-26.82498138 590.35003724 -28.27892836 582.95506796 -28.2109375 573.53125 C-28.20697464 572.58714767 -28.20301178 571.64304535 -28.19892883 570.67033386 C-28.06101097 557.58016917 -27.16673334 544.51814268 -26.32526779 531.4583168 C-26.13881788 528.55424645 -25.95636027 525.64992995 -25.77375126 522.74561596 C-25.36244284 516.20631227 -24.94442778 509.66746695 -24.52148438 503.12890625 C-24.12111904 496.93627466 -23.73799469 490.74273524 -23.3646698 484.54841614 C-23.12154583 480.54657827 -22.86785321 476.54547112 -22.61050415 472.54452515 C-22.49633349 470.74157927 -22.38620146 468.93837252 -22.28036499 467.13491821 C-22.13507369 464.67884756 -21.97398264 462.22431858 -21.80859375 459.76953125 C-21.77115051 459.07468628 -21.73370728 458.37984131 -21.69512939 457.66394043 C-21.28823931 452.04617602 -19.82344838 447.38450942 -16.375 442.875 C-13.60336748 439.0955011 -13.78797521 434.15085135 -13.46484375 429.60546875 C-13.33432617 427.80239258 -13.33432617 427.80239258 -13.20117188 425.96289062 C-13.0706543 424.09407227 -13.0706543 424.09407227 -12.9375 422.1875 C-12.84662109 420.92228516 -12.75574219 419.65707031 -12.66210938 418.35351562 C-12.43857988 415.23586743 -12.21798043 412.11804027 -12 409 C-12.82242188 408.88825439 -13.64484375 408.77650879 -14.4921875 408.66137695 C-21.53032784 407.65106654 -28.21953851 406.31612029 -35 404.1875 C-35.78632813 403.95224609 -36.57265625 403.71699219 -37.3828125 403.47460938 C-48.8442794 399.9643048 -59.70155119 395.4402181 -70.3125 389.875 C-71.93381836 389.02784424 -71.93381836 389.02784424 -73.58789062 388.16357422 C-82.5492491 383.3983438 -90.88206456 378.07601602 -99 372 C-99.9796875 371.28457031 -100.959375 370.56914062 -101.96875 369.83203125 C-106.44410876 366.4824186 -106.44410876 366.4824186 -108 365 C-108 364.34 -108 363.68 -108 363 C-108.59079346 362.89292725 -109.18158691 362.78585449 -109.7902832 362.67553711 C-112.29681716 361.90925941 -113.45698897 360.97757298 -115.35546875 359.19140625 C-116.2827478 358.32539795 -116.2827478 358.32539795 -117.22875977 357.44189453 C-117.87514404 356.82169434 -118.52152832 356.20149414 -119.1875 355.5625 C-119.85515381 354.92940918 -120.52280762 354.29631836 -121.21069336 353.64404297 C-157.43757364 318.97469478 -182.42299353 266.70013366 -184.1262207 216.26220703 C-185.14939858 168.74665116 -174.66584698 124.24823545 -145.34521484 85.78222656 C-143.89550708 83.8615611 -142.48856643 81.9134092 -141.08203125 79.9609375 C-133.52021484 69.60723079 -125.03264286 60.58748248 -115.7824707 51.72412109 C-114.23608457 50.22835628 -112.72939435 48.69176005 -111.23046875 47.1484375 C-109.28180378 45.27143972 -107.70691788 44.06951858 -105.3125 42.875 C-101.82893766 41.23183074 -101.82893766 41.23183074 -100 38 C-99.01 38 -98.02 38 -97 38 C-96.67 37.01 -96.34 36.02 -96 35 C-94.67696283 34.6278958 -93.34262065 34.29369827 -92 34 C-91.505 33.01 -91.505 33.01 -91 32 C-90.01 32 -89.02 32 -88 32 C-88 31.34 -88 30.68 -88 30 C-82.75676389 26.09546247 -76.88485831 23.36379422 -70.79296875 21.078125 C-66.12681801 19.27692555 -61.57543021 17.19920286 -57.00390625 15.171875 C-54 14 -54 14 -51 14 C-51 13.34 -51 12.68 -51 12 C-43.54972324 9.33291271 -36.0412073 7.54766205 -28.3125 5.875 C-27.11560547 5.61074219 -25.91871094 5.34648437 -24.68554688 5.07421875 C-9.97498179 1.84886391 -9.97498179 1.84886391 -4.125 1.9375 C-2.95324219 1.95103516 -2.95324219 1.95103516 -1.7578125 1.96484375 C-1.17773438 1.97644531 -0.59765625 1.98804688 0 2 C0 1.34 0 0.68 0 0 Z M-15 24 C-15 24.66 -15 25.32 -15 26 C-15.81984375 26.04898438 -16.6396875 26.09796875 -17.484375 26.1484375 C-18.56203125 26.22320312 -19.6396875 26.29796875 -20.75 26.375 C-21.81734375 26.44460937 -22.8846875 26.51421875 -23.984375 26.5859375 C-26.84707324 26.97900228 -28.51158294 27.62708024 -31 29 C-32.99110401 29.38290462 -34.99100513 29.72604615 -37 30 C-37 30.66 -37 31.32 -37 32 C-38.21236328 32.12955078 -38.21236328 32.12955078 -39.44921875 32.26171875 C-43.90499793 33.18816789 -47.69745181 34.90872876 -51.8125 36.8125 C-53.33984375 37.50651042 -54.8671875 38.20052083 -56.39453125 38.89453125 C-57.14428223 39.23822754 -57.8940332 39.58192383 -58.66650391 39.93603516 C-62.4315602 41.65272435 -66.21560581 43.32646802 -70 45 C-70 45.66 -70 46.32 -70 47 C-71.65 47.33 -73.3 47.66 -75 48 C-75 48.66 -75 49.32 -75 50 C-75.94875 50.309375 -76.8975 50.61875 -77.875 50.9375 C-80.86080408 51.87394742 -80.86080408 51.87394742 -83 53 C-83 53.66 -83 54.32 -83 55 C-83.99 55 -84.98 55 -86 55 C-86 55.66 -86 56.32 -86 57 C-87.32 57.33 -88.64 57.66 -90 58 C-90 58.66 -90 59.32 -90 60 C-90.57105469 60.26554687 -91.14210938 60.53109375 -91.73046875 60.8046875 C-98.28535745 64.25700409 -103.50440183 69.27478569 -108.203125 74.921875 C-110.10990242 77.12710454 -112.14465456 79.10924372 -114.25 81.125 C-120.12250779 86.92735838 -125.03963388 93.42225151 -130 100 C-130.65097656 100.84433594 -131.30195313 101.68867187 -131.97265625 102.55859375 C-137.35510527 109.82919117 -141.16570323 117.84493723 -145 126 C-145.30969727 126.64743164 -145.61939453 127.29486328 -145.93847656 127.96191406 C-167.09358222 172.46682619 -168.17553415 222.34537956 -152.109375 268.56201172 C-135.99079031 313.30645154 -102.82321173 351.15716091 -60 372 C-49.58353548 376.83768182 -38.80858978 380.53258053 -27.8125 383.8125 C-26.88808105 384.09053467 -25.96366211 384.36856934 -25.01123047 384.6550293 C-10.57098519 388.78494448 3.35227863 390.50324172 18.32861328 390.39111328 C20.86676091 390.37505214 23.40330671 390.39105807 25.94140625 390.41015625 C41.86215768 390.43234793 57.19312235 388.24347215 72.5 383.8125 C73.53954834 383.51786865 74.57909668 383.2232373 75.65014648 382.91967773 C85.44070071 380.04883095 94.73687756 376.25065809 104 372 C104 371.34 104 370.68 104 370 C104.65871094 369.9278125 105.31742187 369.855625 105.99609375 369.78125 C110.12686493 368.7069272 113.42157601 366.68747916 117.0625 364.5 C117.81619873 364.05003662 118.56989746 363.60007324 119.34643555 363.13647461 C130.62592832 356.30060025 140.50163528 348.11390001 150 339 C150.80703369 338.23381348 150.80703369 338.23381348 151.63037109 337.45214844 C159.59205479 329.8622438 166.63576375 321.97257189 173 313 C173.41878418 312.41492676 173.83756836 311.82985352 174.26904297 311.22705078 C180.85804284 301.9435716 186.2351087 292.33049436 191 282 C191.54527344 280.82566406 192.09054687 279.65132813 192.65234375 278.44140625 C199.51440394 263.05851815 203.26266328 247.55546508 206 231 C206.12004395 230.29907227 206.24008789 229.59814453 206.36376953 228.87597656 C212.57425101 191.68713219 205.09933947 151.8936578 187 119 C186.6685498 118.38543945 186.33709961 117.77087891 185.99560547 117.13769531 C174.44571703 95.77576193 156.92971968 73.34498124 137 59 C136.34 59 135.68 59 135 59 C135 58.34 135 57.68 135 57 C133.989375 56.443125 132.97875 55.88625 131.9375 55.3125 C129.22227346 53.77276788 126.69929375 52.10218405 124.1875 50.25 C121.37794776 47.80777227 121.37794776 47.80777227 119 48 C119 47.34 119 46.68 119 46 C116.87717331 44.99539469 114.75166979 43.99644398 112.625 43 C110.84996094 42.1646875 110.84996094 42.1646875 109.0390625 41.3125 C106.24571425 39.86783959 106.24571425 39.86783959 104 40 C104 39.34 104 38.68 104 38 C101.89828133 37.1605118 99.79353375 36.32860344 97.6875 35.5 C95.92986328 34.80390625 95.92986328 34.80390625 94.13671875 34.09375 C91.08153552 32.83537487 91.08153552 32.83537487 88 33 C88 32.34 88 31.68 88 31 C85.03 30.67 82.06 30.34 79 30 C79 29.34 79 28.68 79 28 C69.21822996 25.40389041 60.21586809 23.29138487 50 24 C50 23.34 50 22.68 50 22 C44.23609523 21.18010591 38.63091018 20.8275794 32.8125 20.796875 C31.95172852 20.79117493 31.09095703 20.78547485 30.20410156 20.77960205 C28.38884691 20.77020573 26.57357562 20.76363959 24.75830078 20.75976562 C22.03516324 20.75012449 19.31280274 20.71907626 16.58984375 20.6875 C5.70964427 20.62362117 -4.4009832 21.51515271 -15 24 Z " fill="#0C0E08" transform="translate(291,12)"/>
<path d="M0 0 C10.89 0 21.78 0 33 0 C33 0.66 33 1.32 33 2 C33.97195313 1.95746094 34.94390625 1.91492188 35.9453125 1.87109375 C40.45332257 1.87901048 44.54295147 2.8885019 48.875 4.0625 C49.70362549 4.28655518 50.53225098 4.51061035 51.38598633 4.74145508 C85.91185543 14.43263864 114.02471486 37.72390936 131.796875 68.8203125 C148.80212877 100.07687186 151.27069371 136.23042451 141.54296875 170.19140625 C136.1552579 187.72543951 127.11755609 204.275013 115 218 C114.22140625 218.89976562 113.4428125 219.79953125 112.640625 220.7265625 C108.69950698 225.20991488 104.82787812 229.46740626 100 233 C99.34 233 98.68 233 98 233 C97.67 233.99 97.34 234.98 97 236 C96.01 236 95.02 236 94 236 C94 236.66 94 237.32 94 238 C93.01 238 92.02 238 91 238 C91 238.66 91 239.32 91 240 C90.01 240.33 89.02 240.66 88 241 C87.54625 241.495 87.0925 241.99 86.625 242.5 C84.53081119 244.43309736 82.77849308 244.62452796 80 245 C80 245.66 80 246.32 80 247 C74.95859836 249.81532819 70.77378925 251.5188509 65 252 C65 252.66 65 253.32 65 254 C53.57501436 258.16167862 42.31652209 262 30 262 C29.90026262 256.50485376 29.8281258 251.01024774 29.78027344 245.5144043 C29.76030105 243.64940193 29.73311332 241.78446102 29.69824219 239.91967773 C29.38498856 222.72297475 31.96635464 212.0628723 43.21875 198.63671875 C45.1950766 196.82075199 46.46010893 196.62959164 49 196 C49.33 195.01 49.66 194.02 50 193 C50.99 192.67 51.98 192.34 53 192 C54.02723244 191.02799511 55.02492627 190.02431988 56 189 C57.25 188 58.5 187 59.75 186 C68.68809587 178.19559644 74.40009039 166.6904368 76 155 C77.47645872 132.94470462 74.65802326 110.522583 72.87164307 88.56134033 C72.54042037 84.45019533 72.22136699 80.33814129 71.90232277 76.22603607 C71.59174973 72.23983536 71.27445004 68.2541926 70.95502853 64.26869202 C70.80408402 62.37751413 70.6549839 60.48618803 70.50783157 58.5947113 C70.30178922 55.96163895 70.08689528 53.32943255 69.86962891 50.69726562 C69.78223198 49.54864296 69.78223198 49.54864296 69.69306946 48.3768158 C69.11728553 39.65778467 69.11728553 39.65778467 65.375 32.125 C64.92125 31.75375 64.4675 31.3825 64 31 C64 30.34 64 29.68 64 29 C60.37 29 56.74 29 53 29 C53 29.66 53 30.32 53 31 C52.525625 31.391875 52.05125 31.78375 51.5625 32.1875 C47.76609216 36.59133309 48.96332533 43.64335775 49.34545898 49.12817383 C49.39408081 49.9098291 49.44270264 50.69148438 49.49279785 51.49682617 C49.59876522 53.18515268 49.70802314 54.87327527 49.82024956 56.56119728 C49.99898382 59.25051665 50.16889688 61.94027166 50.33668518 64.6302948 C50.69564547 70.35821888 51.06621429 76.08536384 51.4375 81.8125 C51.86452226 88.41918034 52.28658466 95.02613586 52.70015144 101.63367271 C52.86597947 104.25130136 53.03874449 106.86840546 53.21202087 109.48554993 C53.52443597 114.32174145 53.7862776 119.15845236 54 124 C54.03683521 124.81518978 54.07367043 125.63037956 54.11162186 126.47027206 C54.20781824 128.89000632 54.27002306 131.30816963 54.32055664 133.72924805 C54.34982207 134.44503682 54.37908751 135.1608256 54.40923977 135.89830494 C54.46443579 141.3316369 52.99559772 145.4607329 50 150 C45.7186237 153.97556371 42.94907483 155.36701558 37.03125 155.28125 C33.78364126 154.8315811 32.21093017 153.33726903 30 151 C25.33550583 144.66961506 25.83009876 137.37399906 25.73461914 129.83544922 C25.71817856 128.82662689 25.70173798 127.81780457 25.68479919 126.77841187 C25.64963395 124.59480595 25.6164426 122.41116754 25.58500862 120.22750473 C25.53469357 116.77292015 25.47793867 113.31849685 25.41929626 109.86404419 C25.25348706 100.04476117 25.09715635 90.22534854 24.95043945 80.40576172 C24.86017416 74.39462302 24.76059475 68.38369775 24.65517998 62.37280655 C24.61690606 60.08189721 24.58226054 57.7909243 24.5512867 55.49990463 C24.50785606 52.30164459 24.45264902 49.10378829 24.39477539 45.90576172 C24.37986557 44.48275757 24.37986557 44.48275757 24.36465454 43.03100586 C24.34652206 42.15910614 24.32838959 41.28720642 24.30970764 40.3888855 C24.29229822 39.25570798 24.29229822 39.25570798 24.27453709 38.09963799 C23.95500657 35.65589378 23.31412417 34.08197286 22 32 C18.30691783 29.53794522 15.28683122 29.42957488 11 30 C7.76386646 31.74253345 7.17604685 32.47185944 6 36 C5.88660409 38.28370321 5.83335279 40.57053055 5.81054688 42.85693359 C5.80225357 43.55206055 5.79396027 44.2471875 5.78541565 44.96337891 C5.76800562 46.47745863 5.7528414 47.99156545 5.73963928 49.50568771 C5.71844376 51.93351514 5.69141091 54.36121832 5.66296387 56.78897095 C5.61332496 61.1080572 5.56886251 65.42717898 5.52606201 69.74633789 C5.38641453 83.83143762 5.23001084 97.91605013 5 112 C4.98241638 113.10662743 4.98241638 113.10662743 4.96447754 114.23561096 C4.88701087 118.96263134 4.77957909 123.688014 4.65625 128.4140625 C4.62537292 130.14672867 4.62537292 130.14672867 4.59387207 131.91439819 C4.20498762 144.61061861 4.20498762 144.61061861 1 150 C-1.10681152 151.23989868 -1.10681152 151.23989868 -3 152 C-3 152.66 -3 153.32 -3 154 C-6.49840897 155.74920449 -10.18252346 155.55363066 -14 155 C-16.76920998 153.32802416 -18.05413032 152.38945699 -20 150 C-20.62068359 149.24976563 -20.62068359 149.24976563 -21.25390625 148.484375 C-24.13947312 144.02029245 -24.24018348 139.53870876 -24.16992188 134.36499023 C-24.16439049 133.62037505 -24.1588591 132.87575987 -24.1531601 132.10858059 C-24.04713688 123.52425941 -23.48841663 114.97280419 -22.90625 106.41015625 C-22.79357612 104.68724744 -22.68148728 102.96430028 -22.56994629 101.24131775 C-22.2786323 96.75862932 -21.98138335 92.27635815 -21.68218994 87.79418945 C-21.20234625 80.5995883 -20.72909584 73.4045647 -20.26091003 66.20919609 C-20.09766324 63.71982958 -19.93020187 61.23077269 -19.7623291 58.74171448 C-17.80344568 44.89597358 -17.80344568 44.89597358 -21 32 C-24.62912955 29.5805803 -27.77376713 29.28014715 -32 30 C-35.7972776 31.75855572 -35.7972776 31.75855572 -37.86508179 35.21704102 C-37.97711945 36.11608154 -38.0891571 37.01512207 -38.20458984 37.94140625 C-38.41181671 39.55619873 -38.41181671 39.55619873 -38.62322998 41.20361328 C-38.74756409 42.4564209 -38.87189819 43.70922852 -39 45 C-39.06983345 45.70098816 -39.1396669 46.40197632 -39.21161652 47.12420654 C-39.78886101 53.05634691 -40.26199908 58.99565136 -40.7265625 64.9375 C-40.88041837 66.86785668 -41.03450614 68.79819489 -41.18881226 70.72851562 C-41.50997032 74.76258583 -41.82711387 78.7969475 -42.14160156 82.83154297 C-42.54059555 87.94398862 -42.95140238 93.0554049 -43.36556435 98.16664124 C-43.68684371 102.15249898 -44.00070805 106.13891676 -44.312603 110.1255188 C-44.46084105 112.00712457 -44.61146677 113.88854412 -44.76475906 115.76974487 C-45.55006281 125.44875048 -46.13731643 135.09111511 -46.19287109 144.8046875 C-46.20099131 145.60962646 -46.20911152 146.41456543 -46.2174778 147.24389648 C-46.16956787 162.25135972 -40.48617321 174.75614389 -30.40234375 185.7109375 C-25.63431397 190.25413336 -20.26562374 194.05902003 -15 198 C-6.82290454 204.24916238 -1.08423911 211.71629411 1 222 C1.25267189 225.14884752 1.234166 228.27632057 1.1953125 231.43359375 C1.1924826 232.31153091 1.18965271 233.18946808 1.18673706 234.0940094 C1.17561598 236.87531645 1.15052672 239.65629164 1.125 242.4375 C1.11495975 244.33267761 1.10583573 246.22786032 1.09765625 248.12304688 C1.07570315 252.74882417 1.0412296 257.37435598 1 262 C-26.94040109 262.79779064 -53.5063603 247.59630005 -73.55078125 229.3359375 C-74.35902344 228.56507813 -75.16726562 227.79421875 -76 227 C-76.804375 226.23937256 -76.804375 226.23937256 -77.625 225.46337891 C-100.24177053 203.56430391 -114.982956 170.48598711 -116 139 C-116.0515625 137.68128906 -116.103125 136.36257812 -116.15625 135.00390625 C-117.10057504 99.70878225 -104.21375565 66.64080209 -80 41 C-74.69635891 35.43117686 -68.98955755 29.80020932 -62.5 25.625 C-59.90977444 24.24138268 -59.90977444 24.24138268 -59 22 C-58.01 22 -57.02 22 -56 22 C-56 21.34 -56 20.68 -56 20 C-53.69 19.34 -51.38 18.68 -49 18 C-49 17.34 -49 16.68 -49 16 C-46.79513181 15.01233987 -44.58662689 14.03481484 -42.375 13.0625 C-41.75753906 12.78470703 -41.14007813 12.50691406 -40.50390625 12.22070312 C-36.67573306 10.54839589 -33.14575924 9.5038692 -29 9 C-29 8.34 -29 7.68 -29 7 C-25.48210157 6.15394025 -21.96027995 5.32547725 -18.4375 4.5 C-17.44685547 4.26152344 -16.45621094 4.02304688 -15.43554688 3.77734375 C-10.1602835 2.55053831 -5.41697797 1.69610222 0 2 C0 1.34 0 0.68 0 0 Z " fill="#F8F6F2" transform="translate(299,86)"/>
<path d="M0 0 C31.76139132 24.12287653 53.88034481 58.99262756 60.00634766 98.67651367 C65.73963242 141.08689513 54.40979485 182.7351011 28.53320312 216.72338867 C22.38380873 224.46849843 15.24341303 232.76896757 7.13134766 238.48901367 C6.47134766 238.48901367 5.81134766 238.48901367 5.13134766 238.48901367 C4.80134766 239.47901367 4.47134766 240.46901367 4.13134766 241.48901367 C2.40155388 242.50077984 0.66726031 243.50692891 -1.10302734 244.44604492 C-3.05556643 245.49478442 -3.05556643 245.49478442 -4.93115234 247.61401367 C-7.3580966 249.96266941 -9.64660685 250.61027399 -12.86865234 251.48901367 C-12.86865234 252.14901367 -12.86865234 252.80901367 -12.86865234 253.48901367 C-15.17865234 254.14901367 -17.48865234 254.80901367 -19.86865234 255.48901367 C-19.86865234 256.14901367 -19.86865234 256.80901367 -19.86865234 257.48901367 C-25.53372245 260.57801568 -30.3772267 263.06565983 -36.86865234 263.48901367 C-36.86865234 264.14901367 -36.86865234 264.80901367 -36.86865234 265.48901367 C-38.84865234 265.48901367 -40.82865234 265.48901367 -42.86865234 265.48901367 C-42.86865234 266.14901367 -42.86865234 266.80901367 -42.86865234 267.48901367 C-47.04566794 268.98845517 -51.0434109 269.9612918 -55.43115234 270.61401367 C-56.52556641 270.7815918 -57.61998047 270.94916992 -58.74755859 271.12182617 C-61.49612448 271.44518686 -64.10594403 271.56103959 -66.86865234 271.48901367 C-66.86865234 272.14901367 -66.86865234 272.80901367 -66.86865234 273.48901367 C-71.5602176 273.51417471 -76.2517416 273.53208581 -80.94335938 273.54394531 C-82.5315825 273.54890152 -84.11980125 273.55566843 -85.70800781 273.56445312 C-113.05856123 273.71168536 -113.05856123 273.71168536 -122.86865234 271.48901367 C-122.86865234 270.82901367 -122.86865234 270.16901367 -122.86865234 269.48901367 C-123.65369141 269.4400293 -124.43873047 269.39104492 -125.24755859 269.34057617 C-126.29814453 269.26581055 -127.34873047 269.19104492 -128.43115234 269.11401367 C-129.46369141 269.0444043 -130.49623047 268.97479492 -131.56005859 268.90307617 C-143.90179546 267.35853767 -155.6790959 261.44465944 -166.30615234 255.23901367 C-167.05815918 254.80266602 -167.81016602 254.36631836 -168.58496094 253.91674805 C-170.3849834 252.83631449 -172.13304997 251.670158 -173.86865234 250.48901367 C-173.86865234 249.82901367 -173.86865234 249.16901367 -173.86865234 248.48901367 C-174.44357422 248.38588867 -175.01849609 248.28276367 -175.61083984 248.17651367 C-195.10932289 242.23925932 -215.92256653 212.47280032 -225.03662109 195.56323242 C-230.90399812 184.27866422 -235.41497009 172.82234804 -238.55615234 160.48901367 C-238.75877686 159.69462891 -238.96140137 158.90024414 -239.17016602 158.08178711 C-242.15363221 145.81933032 -243.24992389 133.81900011 -243.18115234 121.23901367 C-243.17866486 120.51057251 -243.17617737 119.78213135 -243.1736145 119.03161621 C-243.116773 108.26627819 -242.83667501 97.90946238 -239.86865234 87.48901367 C-239.64822266 86.69736816 -239.42779297 85.90572266 -239.20068359 85.09008789 C-227.69973352 44.99649805 -201.31166352 10.05298813 -164.86865234 -10.51098633 C-112.24839606 -39.54285187 -48.43716025 -35.83827625 0 0 Z M-105.86865234 -9.51098633 C-105.86865234 -8.85098633 -105.86865234 -8.19098633 -105.86865234 -7.51098633 C-107.24730469 -7.58833008 -107.24730469 -7.58833008 -108.65380859 -7.66723633 C-114.02304185 -7.66723633 -119.11443984 -6.26078049 -124.30615234 -5.01098633 C-125.32386719 -4.77250977 -126.34158203 -4.5340332 -127.39013672 -4.28833008 C-129.88468603 -3.70275512 -132.37733875 -3.11015091 -134.86865234 -2.51098633 C-134.86865234 -1.85098633 -134.86865234 -1.19098633 -134.86865234 -0.51098633 C-135.70654297 -0.40915039 -136.54443359 -0.30731445 -137.40771484 -0.20239258 C-141.27533359 0.57025812 -144.66916697 1.94336837 -148.24365234 3.55151367 C-148.88431641 3.83317383 -149.52498047 4.11483398 -150.18505859 4.4050293 C-151.74894894 5.09360788 -153.30919175 5.79046078 -154.86865234 6.48901367 C-154.86865234 7.14901367 -154.86865234 7.80901367 -154.86865234 8.48901367 C-157.17865234 9.14901367 -159.48865234 9.80901367 -161.86865234 10.48901367 C-161.86865234 11.14901367 -161.86865234 11.80901367 -161.86865234 12.48901367 C-162.85865234 12.48901367 -163.84865234 12.48901367 -164.86865234 12.48901367 C-166.05078877 13.63737477 -167.22560925 14.79469965 -168.35302734 15.99682617 C-170.06275433 17.68011408 -171.8747727 19.06627981 -173.80615234 20.48901367 C-180.2985891 25.27931345 -185.73088599 30.28087933 -190.86865234 36.48901367 C-191.43583984 37.16834961 -192.00302734 37.84768555 -192.58740234 38.54760742 C-214.91882717 66.20812227 -224.54881301 100.62736459 -221.40429688 135.83691406 C-217.71332899 170.40036496 -199.87209646 203.6702464 -173.11816406 225.9465332 C-154.13440712 241.13251785 -129.67028351 253.43886338 -104.86865234 252.48901367 C-104.76891496 246.99386743 -104.69677814 241.49926141 -104.64892578 236.00341797 C-104.62895339 234.1384156 -104.60176567 232.2734747 -104.56689453 230.40869141 C-104.32509098 217.13438782 -104.53563201 205.65665859 -113.41943359 194.94213867 C-119.84635305 188.50496894 -127.26985023 183.06741289 -134.43896484 177.48901367 C-144.53203571 169.2562343 -149.8321307 157.17700809 -151.86865234 144.48901367 C-152.0284327 141.4882443 -152.0328844 138.49352034 -152.02246094 135.48901367 C-152.02032782 134.60890625 -152.01819469 133.72879883 -152.01599693 132.82202148 C-151.93531314 123.008481 -151.20440094 113.26593365 -150.40771484 103.48901367 C-150.25503171 101.5509859 -150.10289302 99.61291517 -149.95126343 97.67480469 C-149.6350304 93.65429402 -149.31351236 89.63425494 -148.98779297 85.61450195 C-148.57313931 80.49396386 -148.17020493 75.3725851 -147.77097511 70.25082397 C-147.45926456 66.2645462 -147.14229256 62.27870036 -146.82368088 58.29296875 C-146.67320821 56.40505953 -146.52410768 54.51704037 -146.37648392 52.62890625 C-145.92722329 46.9099457 -145.43732931 41.19739294 -144.86865234 35.48901367 C-144.74431824 34.23620605 -144.61998413 32.98339844 -144.49188232 31.69262695 C-144.28465546 30.07783447 -144.28465546 30.07783447 -144.07324219 28.43041992 C-143.96120453 27.53137939 -143.84916687 26.63233887 -143.73373413 25.70605469 C-142.52721476 22.61397371 -140.80122217 21.88685946 -137.86865234 20.48901367 C-134.92827831 19.88122686 -132.94748711 20.14692092 -129.86865234 20.48901367 C-127.43745612 22.35916461 -126.22796062 23.77039712 -124.86865234 26.48901367 C-124.22531103 34.81718232 -125.2335818 43.33846329 -125.79463196 51.65718269 C-125.9660811 54.20381252 -126.13297819 56.75070603 -126.29870605 59.29771423 C-126.77027263 66.5333706 -127.24947798 73.76851264 -127.73242188 81.00341797 C-128.02890279 85.44968078 -128.31986732 89.89627937 -128.60774231 94.34310722 C-128.71726325 96.01780411 -128.8288312 97.69236868 -128.94267273 99.36677742 C-129.51999784 107.8613359 -129.97531488 116.33826201 -130.03857422 124.85400391 C-130.0480735 125.55348428 -130.05757278 126.25296465 -130.06735992 126.9736414 C-130.06314524 132.32627153 -129.30388484 136.33677003 -125.86865234 140.48901367 C-125.44455078 141.00979492 -125.02044922 141.53057617 -124.58349609 142.06713867 C-121.63833909 145.05331457 -119.1509063 145.79929049 -115.11865234 145.86401367 C-112.6062216 145.7529198 -111.1264105 145.61789275 -108.86865234 144.48901367 C-108.86865234 143.82901367 -108.86865234 143.16901367 -108.86865234 142.48901367 C-108.24389008 142.23817017 -107.61912781 141.98732666 -106.97543335 141.72888184 C-103.77053247 139.84275577 -103.45220262 137.64554848 -102.43878174 134.19482422 C-101.37048692 129.12474116 -101.29882276 124.06155066 -101.20458984 118.89526367 C-101.15520767 117.02602234 -101.15520767 117.02602234 -101.10482788 115.11901855 C-100.62315071 96.00174031 -100.55919009 76.8663392 -100.46728516 57.74389648 C-100.44636394 53.49576586 -100.41116297 49.24796013 -100.36652756 45.00001526 C-100.35243889 43.40210251 -100.34366136 41.80413317 -100.34047318 40.2061615 C-100.33556987 37.99475386 -100.31245517 35.7842266 -100.28515625 33.57299805 C-100.2770694 32.32143921 -100.26898254 31.06988037 -100.26065063 29.78039551 C-99.83753532 26.22774212 -99.00906265 24.32655351 -96.86865234 21.48901367 C-93.68361947 19.89649724 -90.33541184 20.09771607 -86.86865234 20.48901367 C-83.6325188 22.23154712 -83.0446992 22.96087311 -81.86865234 26.48901367 C-81.76185134 27.90468881 -81.70707573 29.32464586 -81.68592834 30.7441864 C-81.67061569 31.61182114 -81.65530304 32.47945587 -81.63952637 33.37338257 C-81.62756226 34.32250519 -81.61559814 35.27162781 -81.60327148 36.24951172 C-81.5868309 37.25147079 -81.57039032 38.25342987 -81.55345154 39.28575134 C-81.51817096 41.46448841 -81.48499639 43.64326035 -81.45366096 45.82205772 C-81.40348041 49.27330345 -81.34668706 52.7243813 -81.28794861 56.17549133 C-81.12192956 65.98907868 -80.96639608 75.80281355 -80.8190918 85.61669922 C-80.72855056 91.61790811 -80.62894731 97.61891214 -80.52383232 103.61988258 C-80.4856628 105.90469636 -80.45099817 108.18957153 -80.41993904 110.47449303 C-80.37624735 113.67704519 -80.3210694 116.87921574 -80.26342773 120.08154297 C-80.24851791 121.49004517 -80.24851791 121.49004517 -80.23330688 122.92700195 C-80.0556478 131.56608796 -79.04922251 138.15392925 -72.86865234 144.48901367 C-69.64990067 146.09838951 -66.35943464 145.95141207 -62.86865234 145.48901367 C-58.02346099 143.066418 -55.54741493 140.15204484 -52.86865234 135.48901367 C-51.636616 131.79290463 -51.71462516 128.37918245 -51.7355957 124.53076172 C-51.73823646 123.73321063 -51.74087721 122.93565954 -51.74359798 122.11394024 C-51.81120754 113.86685239 -52.28047963 105.65591326 -52.82519722 97.42856789 C-53.00282706 94.7413423 -53.17281752 92.05371998 -53.34104919 89.3658905 C-53.75904066 82.70877166 -54.18798713 76.05237254 -54.61950684 69.39611816 C-54.98699902 63.72559228 -55.34886994 58.05476802 -55.70261955 52.38336754 C-55.86934483 49.7468656 -56.04436117 47.11099816 -56.21961975 44.47505188 C-56.32125221 42.85579139 -56.4224659 41.23650454 -56.52319336 39.6171875 C-56.59871681 38.53318916 -56.59871681 38.53318916 -56.67576599 37.42729187 C-57.34559741 26.20226994 -57.34559741 26.20226994 -54.30615234 22.67651367 C-53.83177734 22.28463867 -53.35740234 21.89276367 -52.86865234 21.48901367 C-52.86865234 20.82901367 -52.86865234 20.16901367 -52.86865234 19.48901367 C-49.23865234 19.48901367 -45.60865234 19.48901367 -41.86865234 19.48901367 C-41.86865234 20.14901367 -41.86865234 20.80901367 -41.86865234 21.48901367 C-41.41490234 21.86026367 -40.96115234 22.23151367 -40.49365234 22.61401367 C-35.49558374 28.38101591 -36.18173119 38.94188535 -35.64990234 46.13745117 C-35.54604412 47.47625262 -35.44157942 48.81500714 -35.33654785 50.15371704 C-35.06169087 53.67777901 -34.79500073 57.20241213 -34.53009033 60.72723389 C-34.26631686 64.21851762 -33.99494513 67.70920854 -33.72412109 71.19995117 C-33.30035503 76.67171871 -32.88268285 82.14391709 -32.46899414 87.61645508 C-32.08364075 92.70305751 -31.68715697 97.78854287 -31.27807617 102.87329102 C-31.18574707 104.03277252 -31.09341797 105.19225403 -30.99829102 106.38687134 C-30.82833489 108.515821 -30.65582838 110.64456966 -30.47998047 112.77304077 C-28.82679692 133.63880956 -27.4314045 154.05345954 -41.11865234 171.32885742 C-44.48574696 175.18883267 -47.21831053 178.28568578 -51.86865234 180.48901367 C-52.19865234 181.14901367 -52.52865234 181.80901367 -52.86865234 182.48901367 C-54.93115234 183.61401367 -54.93115234 183.61401367 -56.86865234 184.48901367 C-56.86865234 185.14901367 -56.86865234 185.80901367 -56.86865234 186.48901367 C-57.45775391 186.58053711 -58.04685547 186.67206055 -58.65380859 186.76635742 C-65.08366007 188.86428074 -69.8351973 197.74513824 -72.86865234 203.48901367 C-75.54179875 209.74812381 -76.28793136 215.35939651 -76.16162109 222.11791992 C-76.15737625 222.99302719 -76.15313141 223.86813446 -76.14875793 224.76976013 C-76.13213215 227.53067439 -76.094512 230.29082472 -76.05615234 233.05151367 C-76.04108463 234.93757075 -76.0273999 236.8236394 -76.01513672 238.7097168 C-75.98228171 243.3031045 -75.93061369 247.89593014 -75.86865234 252.48901367 C-67.56078503 252.10768511 -60.08487223 251.07280491 -52.18115234 248.48901367 C-51.30265625 248.21573242 -50.42416016 247.94245117 -49.51904297 247.66088867 C-45.10271623 246.30507434 -45.10271623 246.30507434 -40.86865234 244.48901367 C-40.86865234 243.82901367 -40.86865234 243.16901367 -40.86865234 242.48901367 C-40.28857422 242.37944336 -39.70849609 242.26987305 -39.11083984 242.15698242 C-34.27118957 241.17467717 -30.21499119 239.94079456 -25.86865234 237.48901367 C-25.86865234 236.82901367 -25.86865234 236.16901367 -25.86865234 235.48901367 C-24.16708984 235.05588867 -24.16708984 235.05588867 -22.43115234 234.61401367 C-21.25552734 234.24276367 -20.07990234 233.87151367 -18.86865234 233.48901367 C-18.53865234 232.82901367 -18.20865234 232.16901367 -17.86865234 231.48901367 C-16.87865234 231.15901367 -15.88865234 230.82901367 -14.86865234 230.48901367 C-14.86865234 229.82901367 -14.86865234 229.16901367 -14.86865234 228.48901367 C-13.87865234 228.48901367 -12.88865234 228.48901367 -11.86865234 228.48901367 C-11.86865234 227.82901367 -11.86865234 227.16901367 -11.86865234 226.48901367 C-10.54865234 226.15901367 -9.22865234 225.82901367 -7.86865234 225.48901367 C-7.86865234 224.82901367 -7.86865234 224.16901367 -7.86865234 223.48901367 C-7.14033203 223.24795898 -6.41201172 223.0069043 -5.66162109 222.75854492 C12.63854396 214.44028808 25.98733028 186.15564885 32.87011719 168.60522461 C45.03282634 136.16569874 44.47723463 99.96323259 30.31494141 68.32885742 C23.18996234 53.14462566 13.81613032 40.44164236 2.13134766 28.48901367 C1.24576172 27.51061523 1.24576172 27.51061523 0.34228516 26.51245117 C-16.13457613 8.68364229 -43.86146984 -5.89981157 -68.21630859 -7.68286133 C-70.30345341 -7.72484917 -70.30345341 -7.72484917 -72.86865234 -7.51098633 C-72.86865234 -8.17098633 -72.86865234 -8.83098633 -72.86865234 -9.51098633 C-83.75865234 -9.51098633 -94.64865234 -9.51098633 -105.86865234 -9.51098633 Z " fill="#0C0E08" transform="translate(404.86865234375,95.510986328125)"/>
<path d="M0 0 C0.93767212 -0.00315216 1.87534424 -0.00630432 2.84143066 -0.009552 C3.86119995 -0.00752777 4.88096924 -0.00550354 5.93164062 -0.00341797 C7.49078186 -0.00485306 7.49078186 -0.00485306 9.0814209 -0.00631714 C11.28393616 -0.0069991 13.48645342 -0.00514374 15.68896484 -0.00097656 C19.07328782 0.00437146 22.45747806 -0.00092105 25.84179688 -0.00732422 C27.97591175 -0.00666344 30.11002655 -0.00538228 32.24414062 -0.00341797 C33.26390991 -0.0054422 34.2836792 -0.00746643 35.33435059 -0.009552 C36.74085876 -0.00482376 36.74085876 -0.00482376 38.17578125 0 C39.42035095 0.00119339 39.42035095 0.00119339 40.69006348 0.00241089 C42.58789062 0.12939453 42.58789062 0.12939453 43.58789062 1.12939453 C43.86359214 4.21751989 44.07713988 7.28960683 44.25219727 10.3840332 C44.31086472 11.35655533 44.36953217 12.32907745 44.42997742 13.33106995 C44.62403994 16.56957379 44.81121297 19.80843493 44.99804688 23.04736328 C45.13084761 25.29927767 45.26394389 27.55117464 45.39732361 29.80305481 C45.67683615 34.54016289 45.95299896 39.27745142 46.22680664 44.01489258 C46.576127 50.05493346 46.93319506 56.09448501 47.29279423 62.13392162 C47.56950681 66.79493245 47.84221134 71.45617135 48.11373711 76.11748695 C48.24373037 78.341646 48.37488911 80.56573727 48.50728035 82.78975487 C50.8928402 123.0042962 50.8928402 123.0042962 41.61523438 134.08642578 C35.1444961 140.60703488 27.71303067 144.35119483 18.46289062 144.62939453 C10.0241265 144.4658153 3.45681737 141.57398738 -2.83398438 135.97314453 C-10.91273494 127.36367313 -12.47632075 118.8332139 -12.39122391 107.2983799 C-12.26899504 104.45374928 -12.09560945 101.61754289 -11.89892578 98.77709961 C-11.83240311 97.71381439 -11.76588043 96.65052917 -11.69734192 95.55502319 C-11.47804294 92.08571178 -11.24617005 88.61737555 -11.01367188 85.14892578 C-10.85705973 82.72470638 -10.70109458 80.3004451 -10.54574585 77.87614441 C-10.21989569 72.82013075 -9.88813449 67.76455254 -9.55175781 62.70922852 C-9.11986389 56.21516464 -8.69999651 49.72039226 -8.28411293 43.22528553 C-7.96355213 38.23155983 -7.63819463 33.23815638 -7.31119919 28.24484825 C-7.15455619 25.84820728 -6.99908118 23.45148968 -6.84477615 21.05469704 C-6.62922146 17.72225201 -6.40757179 14.3902706 -6.18408203 11.05834961 C-6.12065109 10.06156693 -6.05722015 9.06478424 -5.99186707 8.03779602 C-5.93014816 7.13662048 -5.86842926 6.23544495 -5.80484009 5.30696106 C-5.75284266 4.51966519 -5.70084522 3.73236933 -5.64727211 2.92121601 C-5.17951992 -0.64281983 -3.14194282 0.00301274 0 0 Z " fill="#E97818" transform="translate(295.412109375,472.87060546875)"/>
<path d="M0 0 C1.20970459 0.00523682 2.41940918 0.01047363 3.66577148 0.01586914 C4.97094727 0.0190918 6.27612305 0.02231445 7.62084961 0.02563477 C9.00952213 0.03399138 10.39819401 0.04245634 11.78686523 0.05102539 C13.17944179 0.05603873 14.57202005 0.06060193 15.96459961 0.06469727 C19.38456394 0.07653105 22.80444367 0.09301659 26.22436523 0.11352539 C27.54353143 5.99115864 27.61985916 11.86261663 27.84936523 17.86352539 C27.90092773 19.0249707 27.95249023 20.18641602 28.00561523 21.38305664 C28.04944336 22.48520508 28.09327148 23.58735352 28.13842773 24.72290039 C28.17919434 25.73320312 28.21996094 26.74350586 28.26196289 27.78442383 C28.22436523 30.11352539 28.22436523 30.11352539 27.22436523 31.11352539 C24.84868004 31.2019221 22.50227849 31.22882844 20.12670898 31.21118164 C19.06342125 31.20905922 19.06342125 31.20905922 17.97865295 31.20689392 C15.70634811 31.20127982 13.43414048 31.18872502 11.16186523 31.17602539 C9.62475728 31.1710122 8.08764778 31.16644898 6.55053711 31.16235352 C2.77510882 31.15130581 -1.00024647 31.1340318 -4.77563477 31.11352539 C-4.82441616 23.86832628 -4.75273654 16.6598982 -4.33813477 9.42602539 C-4.29881836 8.6300293 -4.25950195 7.8340332 -4.21899414 7.01391602 C-3.83837925 0.15699238 -3.83837925 0.15699238 0 0 Z " fill="#E97618" transform="translate(302.775634765625,421.886474609375)"/>
<path d="M0 0 C1.20970459 0.00523682 2.41940918 0.01047363 3.66577148 0.01586914 C4.97094727 0.0190918 6.27612305 0.02231445 7.62084961 0.02563477 C9.00952213 0.03399138 10.39819401 0.04245634 11.78686523 0.05102539 C13.17944179 0.05603873 14.57202005 0.06060193 15.96459961 0.06469727 C19.38456394 0.07653105 22.80444367 0.09301659 26.22436523 0.11352539 C27.54353143 5.99115864 27.61985916 11.86261663 27.84936523 17.86352539 C27.90092773 19.0249707 27.95249023 20.18641602 28.00561523 21.38305664 C28.04944336 22.48520508 28.09327148 23.58735352 28.13842773 24.72290039 C28.17919434 25.73320312 28.21996094 26.74350586 28.26196289 27.78442383 C28.22436523 30.11352539 28.22436523 30.11352539 27.22436523 31.11352539 C24.84868004 31.2019221 22.50227849 31.22882844 20.12670898 31.21118164 C19.06342125 31.20905922 19.06342125 31.20905922 17.97865295 31.20689392 C15.70634811 31.20127982 13.43414048 31.18872502 11.16186523 31.17602539 C9.62475728 31.1710122 8.08764778 31.16644898 6.55053711 31.16235352 C2.77510882 31.15130581 -1.00024647 31.1340318 -4.77563477 31.11352539 C-4.77563477 29.13352539 -4.77563477 27.15352539 -4.77563477 25.11352539 C-4.11563477 25.11352539 -3.45563477 25.11352539 -2.77563477 25.11352539 C-2.77563477 26.10352539 -2.77563477 27.09352539 -2.77563477 28.11352539 C6.79436523 28.11352539 16.36436523 28.11352539 26.22436523 28.11352539 C25.89436523 24.48352539 25.56436523 20.85352539 25.22436523 17.11352539 C25.11212164 12.10746093 25.17841538 7.12205957 25.22436523 2.11352539 C16.31436523 2.11352539 7.40436523 2.11352539 -1.77563477 2.11352539 C-2.10563477 8.38352539 -2.43563477 14.65352539 -2.77563477 21.11352539 C-3.10563477 21.11352539 -3.43563477 21.11352539 -3.77563477 21.11352539 C-3.80451623 17.80104352 -3.82239276 14.48859372 -3.83813477 11.17602539 C-3.84651367 10.23049805 -3.85489258 9.2849707 -3.86352539 8.31079102 C-3.86674805 7.41166992 -3.8699707 6.51254883 -3.87329102 5.58618164 C-3.87852783 4.75352783 -3.88376465 3.92087402 -3.88916016 3.06298828 C-3.70702924 -0.06457171 -3.16457297 0.12943323 0 0 Z " fill="#D58518" transform="translate(302.775634765625,421.886474609375)"/>
<path d="M0 0 C4.03625076 1.34541692 4.85447953 3.85947465 6.6875 7.4375 C7.00783203 8.03626953 7.32816406 8.63503906 7.65820312 9.25195312 C10 13.71085421 10 13.71085421 10 16 C10.66 16 11.32 16 12 16 C13.15625 17.51171875 13.15625 17.51171875 14.5 19.6875 C20.54559727 29.0427308 27.48031461 37.64205737 35.015625 45.83203125 C37.44100556 48.48180725 39.72974529 51.21710713 42 54 C38.02868147 54 37.40381128 52.83669532 34.625 50.0625 C20.66397321 35.65374348 8.36146412 18.25246436 0 0 Z " fill="#DC8B19" transform="translate(147,299)"/>
<path d="M0 0 C5.18029908 0.70114429 10.30351936 1.58079647 15.4375 2.5625 C16.53481445 2.77036133 16.53481445 2.77036133 17.65429688 2.98242188 C19.43646318 3.3202181 21.21827002 3.65990988 23 4 C23 4.33 23 4.66 23 5 C27.66701097 6.15748463 32.24027099 6.21985583 37.01953125 6.31640625 C37.87810226 6.33718735 38.73667328 6.35796844 39.6212616 6.37937927 C42.35159654 6.44452523 45.08202395 6.50359654 47.8125 6.5625 C49.66862918 6.6057185 51.52474916 6.64933384 53.38085938 6.69335938 C57.92047925 6.80017061 62.46019172 6.90153565 67 7 C67 7.33 67 7.66 67 8 C44.7983702 8.53787027 23.60066495 8.97194854 2 3 C2 2.34 2 1.68 2 1 C1.34 0.67 0.68 0.34 0 0 Z " fill="#A56A16" transform="translate(265,394)"/>
<path d="M0 0 C8.40841243 3.38269466 16.24277792 14.43885232 21 22 C21 22.99 21 23.98 21 25 C21.66 25 22.32 25 23 25 C24.31855095 27.24664262 25.62993972 29.49697306 26.9375 31.75 C27.31068359 32.38421875 27.68386719 33.0184375 28.06835938 33.671875 C29.85536764 36.76291632 31.24885273 39.51467668 32 43 C29.09612624 40.42469911 27.38979909 37.45898883 25.4375 34.125 C19.19581402 23.754311 11.78468511 14.50182737 3.40307617 5.78100586 C0 2.20293899 0 2.20293899 0 0 Z " fill="#E08D1A" transform="translate(418,105)"/>
<path d="M0 0 C0.33 0 0.66 0 1 0 C0.59341885 6.44110137 0.07601839 12.81111265 -0.9375 19.1875 C-2.63481268 30.37955431 -3.20830392 41.71514874 -4 53 C-4.33 53 -4.66 53 -5 53 C-5.31380383 34.94903837 -5.13152531 17.44718606 0 0 Z " fill="#090602" transform="translate(131,175)"/>
<path d="M0 0 C0.99 0.33 1.98 0.66 3 1 C3 1.66 3 2.32 3 3 C3.59167969 3.28875 4.18335938 3.5775 4.79296875 3.875 C6.6766287 4.83516649 8.50255736 5.90720445 10.3125 7 C16.35817498 10.08617313 23.33834415 10.34077364 30 11 C30 11.66 30 12.32 30 13 C19.44531959 13.91927862 11.60955487 12.12379359 3.140625 5.55859375 C1.75 4.25 1.75 4.25 0 2 C0 1.34 0 0.68 0 0 Z " fill="#CA811A" transform="translate(290,604)"/>
<path d="M0 0 C-1.51701255 6.25767679 -6.94102965 9.58825055 -11.75390625 13.3828125 C-14.22078528 15.34889654 -15.96505635 16.93989692 -17.5625 19.6875 C-19.33532414 22.53943449 -20.84092819 23.06081649 -24 24 C-18.79494706 16.4815902 -12.51963779 10.35619283 -6 4 C-5.26007813 3.22140625 -4.52015625 2.4428125 -3.7578125 1.640625 C-2 0 -2 0 0 0 Z " fill="#F0901A" transform="translate(193,79)"/>
<path d="M0 0 C1.47756736 3.91704098 0.51290072 7.36067972 -0.3125 11.3125 C-2.4144082 22.11903664 -3.19023283 33.03397883 -4 44 C-4.33 44 -4.66 44 -5 44 C-5.24073236 33.43452408 -4.76697928 23.21700315 -3.4375 12.73046875 C-2.9223472 8.96387718 -2.9223472 8.96387718 -3 5 C-2.34 5 -1.68 5 -1 5 C-0.67 3.35 -0.34 1.7 0 0 Z " fill="#EE941C" transform="translate(165,179)"/>
<path d="M0 0 C0.66 0 1.32 0 2 0 C2.14809693 10.38324014 1.70201821 20.64523146 1 31 C0.34 31.33 -0.32 31.66 -1 32 C-1.10194194 21.27344291 -1.07419152 10.68436922 0 0 Z " fill="#060605" transform="translate(270,464)"/>
<path d="M0 0 C0.33 0 0.66 0 1 0 C1.23200715 23.4327224 1.23200715 23.4327224 0 29 C-0.66 29.33 -1.32 29.66 -2 30 C-2.26213592 6.78640777 -2.26213592 6.78640777 0 0 Z " fill="#060705" transform="translate(280,420)"/>
<path d="M0 0 C0.66 0 1.32 0 2 0 C0.71934046 4.33257953 -0.93132324 7.7488193 -3.4375 11.5 C-5.89712854 15.25605776 -8.12686058 18.92316715 -10 23 C-10.66 22.01 -11.32 21.02 -12 20 C-10.625 16.3125 -10.625 16.3125 -9 13 C-8.34 13 -7.68 13 -7 13 C-6.773125 12.34 -6.54625 11.68 -6.3125 11 C-4.6121185 7.11341372 -2.60376916 3.36320183 0 0 Z " fill="#1C1C1A" transform="translate(207,137)"/>
<path d="M0 0 C0.33 0 0.66 0 1 0 C1.65107587 27.52548445 1.65107587 27.52548445 -2 36 C-2.66 36.66 -3.32 37.32 -4 38 C-3.88382356 36.62422639 -3.75654223 35.24938955 -3.625 33.875 C-3.55539062 33.10929687 -3.48578125 32.34359375 -3.4140625 31.5546875 C-3 29 -3 29 -2 26.4375 C-0.52799991 21.37749968 -0.53003727 16.3704276 -0.375 11.125 C-0.33632813 10.05507812 -0.29765625 8.98515625 -0.2578125 7.8828125 C-0.16397548 5.25537592 -0.07828443 2.62793829 0 0 Z " fill="#131312" transform="translate(375,217)"/>
<path d="M0 0 C3.15835107 1.39750048 5.32272825 3.05198234 7.75 5.5 C8.67039063 6.41265625 8.67039063 6.41265625 9.609375 7.34375 C11 9 11 9 11 11 C11.639375 11.2475 12.27875 11.495 12.9375 11.75 C15 13 15 13 15.62890625 15.078125 C15.81259766 16.02945312 15.81259766 16.02945312 16 17 C1.69230769 5.07692308 1.69230769 5.07692308 0 0 Z " fill="#251B07" transform="translate(199,316)"/>
<path d="M0 0 C3.43075356 4.57433809 3.43075356 4.57433809 3.4375 9 C3.45683594 9.845625 3.47617187 10.69125 3.49609375 11.5625 C3 14 3 14 -1 18 C-0.505 9.09 -0.505 9.09 0 0 Z " fill="#141411" transform="translate(258,144)"/>
<path d="M0 0 C5.72204417 2.42086484 10.60556427 6.84045769 14 12 C13.67 12.99 13.34 13.98 13 15 C10.82722286 12.88094537 8.66173092 10.75527122 6.5 8.625 C5.87996094 8.02171875 5.25992187 7.4184375 4.62109375 6.796875 C4.03457031 6.21679688 3.44804687 5.63671875 2.84375 5.0390625 C2.29912109 4.50490723 1.75449219 3.97075195 1.19335938 3.42041016 C0 2 0 2 0 0 Z " fill="#251A07" transform="translate(438,79)"/>
<path d="M0 0 C0.33 0.66 0.66 1.32 1 2 C-2.19826985 7.11723176 -5.95834187 11.52692892 -10 16 C-10.66 15.34 -11.32 14.68 -12 14 C-11.195625 13.236875 -10.39125 12.47375 -9.5625 11.6875 C-6.83200976 9.20569102 -6.83200976 9.20569102 -6 6 C-4.37446717 4.29319053 -2.70884005 2.62339805 -1 1 C-0.67 0.67 -0.34 0.34 0 0 Z " fill="#161615" transform="translate(480,337)"/>
<path d="M0 0 C0.33 0.99 0.66 1.98 1 3 C-0.546875 5.59375 -0.546875 5.59375 -2.75 8.5 C-3.82507813 9.93859375 -3.82507813 9.93859375 -4.921875 11.40625 C-6.53486175 13.4194515 -8.12226889 15.24111263 -10 17 C-8.87617013 13.34755293 -7.57511757 9.78394794 -6.125 6.25 C-5.81820312 5.49203125 -5.51140625 4.7340625 -5.1953125 3.953125 C-3.76866232 1.62199725 -2.50786806 0.98635815 0 0 Z " fill="#DC891A" transform="translate(192,125)"/>
<path d="M0 0 C0 0.99 0 1.98 0 3 C-0.73605469 3.39832031 -1.47210938 3.79664062 -2.23046875 4.20703125 C-3.20628906 4.73683594 -4.18210938 5.26664062 -5.1875 5.8125 C-6.63189453 6.59560547 -6.63189453 6.59560547 -8.10546875 7.39453125 C-10.01842069 8.45556127 -11.89862718 9.57814673 -13.73828125 10.76171875 C-14.48464844 11.17035156 -15.23101562 11.57898438 -16 12 C-16.66 11.67 -17.32 11.34 -18 11 C-15.7516034 9.53914338 -13.50137827 8.08124864 -11.25 6.625 C-10.61578125 6.2125 -9.9815625 5.8 -9.328125 5.375 C-6.28644824 3.41058376 -3.29809453 1.51579092 0 0 Z " fill="#080603" transform="translate(244,83)"/>
<path d="M0 0 C0.99 0.33 1.98 0.66 3 1 C-0.96 4.96 -4.92 8.92 -9 13 C-9.66 12.34 -10.32 11.68 -11 11 C-7.37 7.37 -3.74 3.74 0 0 Z " fill="#2C2008" transform="translate(184,83)"/>
<path d="M0 0 C0.99 0.33 1.98 0.66 3 1 C3 1.66 3 2.32 3 3 C3.78375 3.0825 4.5675 3.165 5.375 3.25 C6.24125 3.4975 7.1075 3.745 8 4 C8.69937532 5.31647119 9.36729133 6.65022151 10 8 C11.32594105 8.36162029 12.65938457 8.69728039 14 9 C14.33 9.99 14.66 10.98 15 12 C11.62186065 10.38331903 8.43934759 8.52420189 5.25 6.5625 C4.26515625 5.96566406 3.2803125 5.36882813 2.265625 4.75390625 C1.51796875 4.17511719 0.7703125 3.59632812 0 3 C0 2.01 0 1.02 0 0 Z " fill="#2E2008" transform="translate(410,57)"/>
<path d="M0 0 C2.475 0.495 2.475 0.495 5 1 C5.33 1.99 5.66 2.98 6 4 C6.66 4 7.32 4 8 4 C9.2890625 5.6796875 9.2890625 5.6796875 10.625 7.875 C11.29402344 8.95394531 11.29402344 8.95394531 11.9765625 10.0546875 C13 12 13 12 13 14 C12.34 14 11.68 14 11 14 C9.66796875 12.20703125 9.66796875 12.20703125 8.1875 9.8125 C5.75905151 6.02960972 3.3135502 3.02117813 0 0 Z " fill="#1E1E1C" transform="translate(285,285)"/>
<path d="M0 0 C4.22489602 0.53280216 6.54080716 1.87678199 9.8125 4.5625 C10.60269531 5.20316406 11.39289063 5.84382813 12.20703125 6.50390625 C12.79871094 6.99761719 13.39039063 7.49132812 14 8 C13.67 8.99 13.34 9.98 13 11 C11.49428343 9.88266271 9.99555708 8.75589965 8.5 7.625 C7.6646875 6.99851562 6.829375 6.37203125 5.96875 5.7265625 C5.3190625 5.15679687 4.669375 4.58703125 4 4 C4 3.34 4 2.68 4 2 C2.68 1.67 1.36 1.34 0 1 C0 0.67 0 0.34 0 0 Z " fill="#292928" transform="translate(179,373)"/>
<path d="M0 0 C0 4.33174693 -2.65822583 6.22353653 -5.5 9.1875 C-6.28697266 10.02571289 -6.28697266 10.02571289 -7.08984375 10.88085938 C-8.38661613 12.26015364 -9.69246259 13.63090644 -11 15 C-11.33 14.01 -11.66 13.02 -12 12 C-8.88409801 7.28744016 -4.54709562 3.30697864 0 0 Z " fill="#1F201E" transform="translate(465,355)"/>
<path d="M0 0 C2.5 1.375 2.5 1.375 5 3 C5 3.66 5 4.32 5 5 C5.66 5 6.32 5 7 5 C8.37310707 6.29233607 9.71034824 7.62437146 11 9 C10.67 9.99 10.34 10.98 10 12 C8.8944811 11.06409496 7.79064547 10.12620142 6.6875 9.1875 C6.07261719 8.66542969 5.45773438 8.14335937 4.82421875 7.60546875 C4.22222656 7.07566406 3.62023437 6.54585938 3 6 C2.42894531 5.50113281 1.85789063 5.00226563 1.26953125 4.48828125 C0 3 0 3 0 0 Z " fill="#212120" transform="translate(162,355)"/>
<path d="M0 0 C0.66 0 1.32 0 2 0 C0.62712658 3.69876091 -1.06355453 6.9514476 -3.125 10.3125 C-3.66382813 11.19550781 -4.20265625 12.07851563 -4.7578125 12.98828125 C-5.37269531 13.98408203 -5.37269531 13.98408203 -6 15 C-6.70703125 13.359375 -6.70703125 13.359375 -7 11 C-5.63671875 8.203125 -5.63671875 8.203125 -3.6875 5.25 C-3.05199219 4.26515625 -2.41648437 3.2803125 -1.76171875 2.265625 C-1.18035156 1.51796875 -0.59898437 0.7703125 0 0 Z " fill="#1D1D1C" transform="translate(490,321)"/>
<path d="M0 0 C0 0.66 0 1.32 0 2 C-0.99 2 -1.98 2 -3 2 C-3 2.66 -3 3.32 -3 4 C-4.6210103 4.69685498 -6.24696066 5.38222861 -7.875 6.0625 C-8.77992188 6.44535156 -9.68484375 6.82820313 -10.6171875 7.22265625 C-13 8 -13 8 -15 7 C-15 6.34 -15 5.68 -15 5 C-11.17010894 3.19769832 -8.21878192 2.80377759 -4 3 C-4 2.34 -4 1.68 -4 1 C-2 0 -2 0 0 0 Z " fill="#343533" transform="translate(273,91)"/>
<path d="M0 0 C0.66 0 1.32 0 2 0 C1.42365861 4.75481646 -0.55068521 7.97048212 -3 12 C-3.33 12 -3.66 12 -4 12 C-3.53680089 7.27536912 -2.90108294 3.82942948 0 0 Z " fill="#1D1D1B" transform="translate(360,603)"/>
<path d="M0 0 C8.3 2.23461538 8.3 2.23461538 11 4 C11.33 4.99 11.66 5.98 12 7 C7.27934033 5.45730076 2.58335908 3.92205381 -2 2 C-1.34 1.34 -0.68 0.68 0 0 Z " fill="#C27918" transform="translate(365,72)"/>
<path d="M0 0 C4.29951803 1.59241408 6.39671947 4.35540725 9 8 C8.67 8.99 8.34 9.98 8 11 C6.84852339 9.73427767 5.70400686 8.46222094 4.5625 7.1875 C3.92441406 6.47980469 3.28632813 5.77210938 2.62890625 5.04296875 C1 3 1 3 0 0 Z " fill="#1F201E" transform="translate(270,612)"/>
<path d="M0 0 C-1.4258086 3.45195767 -3.09746334 5.1014256 -6.125 7.25 C-7.21167969 8.03117187 -7.21167969 8.03117187 -8.3203125 8.828125 C-8.87460937 9.21484375 -9.42890625 9.6015625 -10 10 C-9.43867066 6.4628562 -8.30442253 5.00738321 -5.5625 2.75 C-4.94503906 2.22921875 -4.32757813 1.7084375 -3.69140625 1.171875 C-2 0 -2 0 0 0 Z " fill="#252523" transform="translate(452,369)"/>
<path d="M0 0 C0 0.66 0 1.32 0 2 C-8.42857143 4.28571429 -8.42857143 4.28571429 -13 4 C-12 2 -12 2 -8.75 0.875 C-5.62299365 0.14536518 -3.17377095 -0.19234975 0 0 Z " fill="#C77D17" transform="translate(359,395)"/>
<path d="M0 0 C0.99 0.66 1.98 1.32 3 2 C1.23358317 2.6987693 -0.53832664 3.38366583 -2.3125 4.0625 C-3.79169922 4.63677734 -3.79169922 4.63677734 -5.30078125 5.22265625 C-8 6 -8 6 -11 5 C-10.34 5 -9.68 5 -9 5 C-9 4.34 -9 3.68 -9 3 C-7.56879256 2.44191911 -6.12969645 1.90403538 -4.6875 1.375 C-3.88699219 1.07335937 -3.08648437 0.77171875 -2.26171875 0.4609375 C-1.51535156 0.30882812 -0.76898438 0.15671875 0 0 Z " fill="#BB7617" transform="translate(378,388)"/>
<path d="M0 0 C3.68014125 0.70771947 6.76166418 2.12896153 10 4 C10.33 4.99 10.66 5.98 11 7 C6.96678237 5.78065514 3.45730521 4.44045073 0 2 C0 1.34 0 0.68 0 0 Z " fill="#C77A18" transform="translate(222,377)"/>
<path d="M0 0 C0.66 0.33 1.32 0.66 2 1 C0.90653119 2.34212062 -0.2001575 3.67347975 -1.3125 5 C-2.23482422 6.11375 -2.23482422 6.11375 -3.17578125 7.25 C-5 9 -5 9 -8 9 C-7.04270084 7.87411986 -6.08412105 6.7493285 -5.125 5.625 C-4.59132813 4.99851562 -4.05765625 4.37203125 -3.5078125 3.7265625 C-2.38567993 2.44163349 -1.20628025 1.20628025 0 0 Z " fill="#252624" transform="translate(343,282)"/>
<path d="M0 0 C3.49734228 0.38859359 6.65788261 0.88596087 10 2 C10 2.66 10 3.32 10 4 C10.66 4.33 11.32 4.66 12 5 C10.58194169 4.71517632 9.16559621 4.42181856 7.75 4.125 C6.96109375 3.96257812 6.1721875 3.80015625 5.359375 3.6328125 C3.03168856 3.00849925 1.10968048 2.15161458 -1 1 C-0.67 0.67 -0.34 0.34 0 0 Z " fill="#383836" transform="translate(349,89)"/>
<path d="M0 0 C4.19360449 0.67097672 7.40334352 2.8558394 11 5 C11 5.66 11 6.32 11 7 C3.62702703 4.65405405 3.62702703 4.65405405 1 3 C0.67 2.01 0.34 1.02 0 0 Z " fill="#2B1E07" transform="translate(396,50)"/>
<path d="M0 0 C0.33 0.99 0.66 1.98 1 3 C-0.43359375 5.26171875 -0.43359375 5.26171875 -2.4375 7.6875 C-3.09621094 8.49574219 -3.75492187 9.30398438 -4.43359375 10.13671875 C-4.95050781 10.75160156 -5.46742188 11.36648438 -6 12 C-6.66 11.34 -7.32 10.68 -8 10 C-5.36 6.7 -2.72 3.4 0 0 Z " fill="#1D1307" transform="translate(437,303)"/>
<path d="M0 0 C0.66 0 1.32 0 2 0 C3.32421875 1.390625 3.32421875 1.390625 4.6875 3.25 C5.14511719 3.85328125 5.60273438 4.4565625 6.07421875 5.078125 C7 7 7 7 6.64453125 9.234375 C6.43183594 9.81703125 6.21914063 10.3996875 6 11 C4.9944239 9.54550599 3.99569565 8.08627557 3 6.625 C2.443125 5.81289063 1.88625 5.00078125 1.3125 4.1640625 C0 2 0 2 0 0 Z " fill="#1C1C1A" transform="translate(257,255)"/>
<path d="M0 0 C3.56720996 2.67540747 6.41126424 5.35659412 9 9 C9 9.66 9 10.32 9 11 C4.70073737 9.40768051 2.64994267 6.60686641 0 3 C0 2.01 0 1.02 0 0 Z " fill="#1C1305" transform="translate(455,96)"/>
<path d="M0 0 C4.82029598 3.85623679 4.82029598 3.85623679 5.33203125 7.11328125 C5.3145776 9.07856214 5.16596091 11.04166127 5 13 C1.42988974 9.267612 0.89086558 4.9050011 0 0 Z " fill="#F0931B" transform="translate(138,275)"/>
<path d="M0 0 C0.33 0.99 0.66 1.98 1 3 C-1.31 5.31 -3.62 7.62 -6 10 C-6.66 9.34 -7.32 8.68 -8 8 C-5.36 5.36 -2.72 2.72 0 0 Z " fill="#292928" transform="translate(363,265)"/>
<path d="M0 0 C-7.5 5 -7.5 5 -11 5 C-10 2 -10 2 -7.1875 0.25 C-4.03596914 -0.98589446 -3.03070628 -1.28222189 0 0 Z " fill="#302108" transform="translate(241,48)"/>
<path d="M0 0 C2.97 0.99 5.94 1.98 9 3 C9 3.66 9 4.32 9 5 C9.99 5.33 10.98 5.66 12 6 C8.07765636 5.45269624 4.54220546 4.82170566 1 3 C0.67 2.01 0.34 1.02 0 0 Z " fill="#373735" transform="translate(289,629)"/>
<path d="M0 0 C0.66 0 1.32 0 2 0 C3.65 3.3 5.3 6.6 7 10 C6.34 10.66 5.68 11.32 5 12 C4.16180842 10.37750059 3.3295884 8.75191503 2.5 7.125 C2.0359375 6.22007812 1.571875 5.31515625 1.09375 4.3828125 C0 2 0 2 0 0 Z " fill="#1D1306" transform="translate(475,125)"/>
<path d="M0 0 C2.33333333 2.33333333 4.66666667 4.66666667 7 7 C6.625 9.125 6.625 9.125 6 11 C4.98805294 9.92781799 3.99081943 8.84173622 3 7.75 C2.443125 7.14671875 1.88625 6.5434375 1.3125 5.921875 C0 4 0 4 0 0 Z " fill="#21211F" transform="translate(409,123)"/>
<path d="M0 0 C0 0.66 0 1.32 0 2 C-2.2727675 3.49524178 -4.5679943 4.78399715 -7 6 C-7.66 5.67 -8.32 5.34 -9 5 C-9 4.34 -9 3.68 -9 3 C-2.25 0 -2.25 0 0 0 Z " fill="#D88118" transform="translate(394,348)"/>
<path d="M0 0 C0.66 0 1.32 0 2 0 C0.33333333 3.33333333 -1.33333333 6.66666667 -3 10 C-3.99 9.67 -4.98 9.34 -6 9 C-5.05016642 7.49460339 -4.08988109 5.99579653 -3.125 4.5 C-2.59132813 3.6646875 -2.05765625 2.829375 -1.5078125 1.96875 C-0.76144531 0.99421875 -0.76144531 0.99421875 0 0 Z " fill="#070504" transform="translate(471,313)"/>
<path d="M0 0 C0.33 0 0.66 0 1 0 C0.88490339 1.41750563 0.75746342 2.83401169 0.625 4.25 C0.55539063 5.03890625 0.48578125 5.8278125 0.4140625 6.640625 C-0.01507113 9.085877 -0.78600638 10.84836903 -2 13 C-2.05447047 11.58376784 -2.09300508 10.16691809 -2.125 8.75 C-2.14820313 7.96109375 -2.17140625 7.1721875 -2.1953125 6.359375 C-1.9828378 3.79268059 -1.28654105 2.2083933 0 0 Z " fill="#161614" transform="translate(189,171)"/>
<path d="M0 0 C0.99 0.33 1.98 0.66 3 1 C0.69 3.31 -1.62 5.62 -4 8 C-4.66 7.34 -5.32 6.68 -6 6 C-4.02 4.02 -2.04 2.04 0 0 Z " fill="#282827" transform="translate(218,125)"/>
<path d="M0 0 C1.258125 -0.020625 2.51625 -0.04125 3.8125 -0.0625 C4.52019531 -0.07410156 5.22789062 -0.08570313 5.95703125 -0.09765625 C8 0 8 0 11 1 C11 1.66 11 2.32 11 3 C11.66 3.33 12.32 3.66 13 4 C11.58194169 3.71517632 10.16559621 3.42181856 8.75 3.125 C7.96109375 2.96257813 7.1721875 2.80015625 6.359375 2.6328125 C4.03168856 2.00849925 2.10968048 1.15161458 0 0 Z " fill="#D38017" transform="translate(368,42)"/>
<path d="M0 0 C0.66 0 1.32 0 2 0 C5.22265625 5.17578125 5.22265625 5.17578125 6 7 C5.67 7.99 5.34 8.98 5 10 C4.16121545 8.71186658 3.32913217 7.41936744 2.5 6.125 C2.0359375 5.40570313 1.571875 4.68640625 1.09375 3.9453125 C0 2 0 2 0 0 Z " fill="#181816" transform="translate(136,320)"/>
<path d="M0 0 C0.33 0 0.66 0 1 0 C1.12036664 5.77759884 0.8320582 11.27959989 0 17 C-0.33 17 -0.66 17 -1 17 C-2.0748291 10.72532201 -1.88341198 6.09339169 0 0 Z " fill="#221405" transform="translate(465,221)"/>
<path d="M0 0 C-1.28524261 0.86380259 -2.57842419 1.71580369 -3.875 2.5625 C-4.59429687 3.03816406 -5.31359375 3.51382812 -6.0546875 4.00390625 C-6.69664062 4.33261719 -7.33859375 4.66132813 -8 5 C-8.66 4.67 -9.32 4.34 -10 4 C-4.75 -1.425 -4.75 -1.425 0 0 Z " fill="#C07A17" transform="translate(407,377)"/>
<path d="M0 0 C0.66 0 1.32 0 2 0 C3.5625 2.8125 3.5625 2.8125 5 6 C4.67 6.99 4.34 7.98 4 9 C1.49701566 6.06171403 0.53069061 3.82097239 0 0 Z " fill="#191917" transform="translate(127,303)"/>
<path d="M0 0 C0.66 0 1.32 0 2 0 C3.32 2.97 4.64 5.94 6 9 C5.01 9.495 5.01 9.495 4 10 C3.32845067 8.71086513 2.66291141 7.41859796 2 6.125 C1.62875 5.40570312 1.2575 4.68640625 0.875 3.9453125 C0 2 0 2 0 0 Z " fill="#E8951D" transform="translate(285,595)"/>
<path d="M0 0 C0.928125 0.20625 1.85625 0.4125 2.8125 0.625 C-0.37512365 2.75008244 -2.45262223 3.1270163 -6.1875 3.625 C-6.1875 2.965 -6.1875 2.305 -6.1875 1.625 C-3.1875 -0.375 -3.1875 -0.375 0 0 Z " fill="#3D3D3B" transform="translate(378.1875,411.375)"/>
<path d="M0 0 C-6.75 4 -6.75 4 -9 4 C-8.3125 2.0625 -8.3125 2.0625 -7 0 C-4.12060581 -0.93580311 -2.74490212 -1.37245106 0 0 Z " fill="#434341" transform="translate(423,393)"/>
<path d="M0 0 C0.33 0.99 0.66 1.98 1 3 C-1.97 5.475 -1.97 5.475 -5 8 C-5 5 -5 5 -2.5 2.3125 C-1.675 1.549375 -0.85 0.78625 0 0 Z " fill="#1E1D1C" transform="translate(474,345)"/>
<path d="M0 0 C0.66 0.33 1.32 0.66 2 1 C0.90931332 4.77545388 0.0916909 7.47043472 -3 10 C-2.49287967 6.28111761 -1.88391785 3.26545761 0 0 Z " fill="#201506" transform="translate(446,287)"/>
<path d="M0 0 C1.32 0 2.64 0 4 0 C4 0.66 4 1.32 4 2 C4.99 2.33 5.98 2.66 7 3 C7 3.66 7 4.32 7 5 C4.0625 4.1875 4.0625 4.1875 1 3 C0.67 2.01 0.34 1.02 0 0 Z " fill="#C97C17" transform="translate(382,80)"/>
<path d="M0 0 C0.66 0.33 1.32 0.66 2 1 C-0.31 3.64 -2.62 6.28 -5 9 C-5.66 8.34 -6.32 7.68 -7 7 C-4.69 4.69 -2.38 2.38 0 0 Z " fill="#040402" transform="translate(173,66)"/>
<path d="M0 0 C-1.0975223 2.99324263 -1.67682892 3.84610901 -4.625 5.25 C-5.40875 5.4975 -6.1925 5.745 -7 6 C-7.33 5.34 -7.66 4.68 -8 4 C-7.01 4 -6.02 4 -5 4 C-5 3.34 -5 2.68 -5 2 C-2 0 -2 0 0 0 Z " fill="#333331" transform="translate(208,40)"/>
<path d="M0 0 C1.98 0.66 3.96 1.32 6 2 C2.91190305 3.76462683 1.76687864 4 -2 4 C-1.34 2.68 -0.68 1.36 0 0 Z " fill="#31312F" transform="translate(350,417)"/>
<path d="M0 0 C0.5775 0.37125 1.155 0.7425 1.75 1.125 C-4.875 4.25 -4.875 4.25 -8.25 3.125 C-7.59 3.125 -6.93 3.125 -6.25 3.125 C-6.25 2.465 -6.25 1.805 -6.25 1.125 C-2.80384615 -1.09038462 -2.80384615 -1.09038462 0 0 Z " fill="#3C3C3A" transform="translate(399.25,403.875)"/>
<path d="M0 0 C2.31 0.33 4.62 0.66 7 1 C7 1.66 7 2.32 7 3 C7.99 3.33 8.98 3.66 10 4 C7.36 3.67 4.72 3.34 2 3 C2 2.34 2 1.68 2 1 C1.34 0.67 0.68 0.34 0 0 Z " fill="#C17416" transform="translate(265,394)"/>
<path d="M0 0 C0.99 0.33 1.98 0.66 3 1 C3 3.64 3 6.28 3 9 C0.23776722 6.23776722 0.42143709 3.79293383 0 0 Z " fill="#F2961D" transform="translate(135,265)"/>
<path d="M0 0 C2.97 0 5.94 0 9 0 C5.39338934 1.80330533 2.91606575 2.46599103 -1 3 C-0.67 2.01 -0.34 1.02 0 0 Z " fill="#B67416" transform="translate(271,69)"/>
<path d="M0 0 C0.99 0.103125 1.98 0.20625 3 0.3125 C3.66 1.3025 4.32 2.2925 5 3.3125 C1.7 2.9825 -1.6 2.6525 -5 2.3125 C-3 0.3125 -3 0.3125 0 0 Z " fill="#C37716" transform="translate(331,63.6875)"/>
<path d="M0 0 C0.33 0.99 0.66 1.98 1 3 C-0.65 4.32 -2.3 5.64 -4 7 C-4.33 6.34 -4.66 5.68 -5 5 C-3.35 3.35 -1.7 1.7 0 0 Z " fill="#262626" transform="translate(352,617)"/>
<path d="M0 0 C0.8125 1.6875 0.8125 1.6875 1 4 C-1.4375 6.75 -1.4375 6.75 -4 9 C-3.67 7.35 -3.34 5.7 -3 4 C-2.01 3.67 -1.02 3.34 0 3 C0 2.01 0 1.02 0 0 Z " fill="#DEDEDC" transform="translate(276,449)"/>
<path d="M0 0 C3.36720387 1.39332574 4.9859524 2.9789286 7 6 C3.75728494 5.4409112 2.06942576 4.5867822 0 2 C0 1.34 0 0.68 0 0 Z " fill="#E18719" transform="translate(190,354)"/>
<path d="M0 0 C0.66 0 1.32 0 2 0 C1.46930939 3.82097239 0.50298434 6.06171403 -2 9 C-1.125 2.25 -1.125 2.25 0 0 Z " fill="#1A1918" transform="translate(503,295)"/>
<path d="M0 0 C0.66 0 1.32 0 2 0 C3.6875 2.3125 3.6875 2.3125 5 5 C4.67 5.99 4.34 6.98 4 8 C1.84622436 5.37801226 0.59927826 3.35595828 0 0 Z " fill="#1C1B1A" transform="translate(428,150)"/>
<path d="M0 0 C-0.33 0.66 -0.66 1.32 -1 2 C-3.3140622 2.73075648 -5.64828869 3.40138258 -8 4 C-8 3.01 -8 2.02 -8 1 C-5.29120665 -0.35439668 -2.99066732 -0.06501451 0 0 Z " fill="#060604" transform="translate(316,115)"/>
</svg>
